Patient4_TMGait_0pt3_01_left_20_GRF.mot
version=1
nRows=38
nColumns=19
inDegrees=no
endheader
time	F1x	F1y	F1z	M1x	M1y	M1z	F2x	F2y	F2z	M2x	M2y	M2z	EC1x	EC1y	EC1z	EC2x	EC2y	EC2z
37.4	-0.28347	-8.5664	3.0974	0.45426	-1.8798	-5.2334	-9.3832	712.2064	-43.7802	239.1564	50.4179	707.8919	-0.0592	0.0182	-0.0073	-0.0462	0.0165	0.9585
37.4191	-0.12544	-5.2719	2.2247	0.091888	-1.389	-2.9599	-11.1917	729.4464	-43.7789	245.3505	50.8765	722.6074	-0.0592	0.0182	-0.0073	-0.0462	0.0165	0.9585
37.4381	-0.0031034	-2.4309	1.4486	-0.21836	-0.94939	-1.0015	-12.7433	752.6646	-43.9059	253.6104	51.3878	742.5593	-0.0592	0.0182	-0.0073	-0.0462	0.0165	0.9585
37.4572	0.076826	-0.22246	0.83159	-0.45923	-0.60008	0.52065	-13.9385	781.12	-44.1616	263.6358	51.897	767.0732	-0.0592	0.0182	-0.0073	-0.0462	0.0165	0.9585
37.4763	0.11548	1.3381	0.38545	-0.62813	-0.35071	1.599	-14.8147	812.8019	-44.5386	274.6799	52.3724	794.2912	-0.0592	0.0182	-0.0073	-0.0462	0.0165	0.9585
37.4954	0.12218	2.3161	0.094749	-0.72982	-0.19428	2.2738	-15.4342	844.6835	-45.0143	285.6561	52.7724	821.3802	-0.0592	0.0182	-0.0073	-0.0462	0.0165	0.9585
37.5144	0.10618	2.8012	-0.070193	-0.76654	-0.11126	2.5949	-15.766	873.3632	-45.5153	295.3759	52.982	845.1165	-0.0592	0.0182	-0.0073	-0.0462	0.0165	0.9585
37.5335	0.071282	2.8754	-0.14456	-0.73426	-0.077563	2.6039	-15.6814	895.6497	-45.9255	302.7527	52.8282	862.4595	-0.0592	0.0182	-0.0073	-0.0462	0.0165	0.9585
37.5526	0.018723	2.5967	-0.16189	-0.62298	-0.074578	2.3185	-15.0407	908.9474	-46.1379	306.9293	52.1642	870.9557	-0.0592	0.0182	-0.0073	-0.0462	0.0165	0.9585
37.5716	-0.049058	1.9929	-0.15018	-0.4171	-0.091005	1.7373	-13.7665	911.5677	-46.0728	307.3796	50.9086	869.0609	-0.0592	0.0182	-0.0073	-0.0462	0.0165	0.9585
37.5907	-0.12794	1.0798	-0.13032	-0.10056	-0.11512	0.85167	-11.864	903.0143	-45.6774	303.996	49.0472	856.4095	-0.0592	0.0182	-0.0073	-0.0462	0.0165	0.9585
37.6098	-0.2106	-0.129	-0.11946	0.3342	-0.13231	-0.34078	-9.3972	884.1321	-44.9263	297.1274	46.6199	833.9193	-0.0592	0.0182	-0.0073	-0.0462	0.0165	0.9585
37.6289	-0.28347	-1.5894	-0.13432	0.87504	-0.12331	-1.8046	-6.4443	857.0013	-43.8351	287.5323	43.7135	803.6598	-0.0592	0.0182	-0.0073	-0.0462	0.0165	0.9585
37.6479	-0.32567	-3.1853	-0.19074	1.4753	-0.060773	-3.423	-3.0684	824.5761	-42.4664	276.2482	40.449	768.4821	-0.0592	0.0182	-0.0073	-0.0462	0.0165	0.9585
37.667	-0.30466	-4.6718	-0.30477	2.0347	0.088811	-4.9454	0.69555	790.1673	-40.9337	264.417	36.9752	731.5227	-0.0592	0.0182	-0.0073	-0.0462	0.0165	0.9585
37.6861	-0.17433	-5.6191	-0.48989	2.3782	0.3606	-5.9234	4.8154	756.9443	-39.3829	253.1131	33.454	695.7505	-0.0592	0.0182	-0.0073	-0.0462	0.0165	0.9585
37.7051	0.12644	-5.3598	-0.75272	2.2374	0.78165	-5.6629	9.1974	727.5219	-37.9733	243.2068	30.0636	663.6092	-0.0592	0.0182	-0.0073	-0.0462	0.0165	0.9585
37.7242	0.66734	-2.9572	-1.0861	1.2401	1.3652	-3.1974	13.6552	703.662	-36.8584	235.2694	26.9945	636.7623	-0.0592	0.0182	-0.0073	-0.0462	0.0165	0.9585
37.7433	1.5087	2.7774	-1.4588	-1.0834	2.0972	2.6989	17.9431	686.1108	-36.156	229.5248	24.4218	615.9489	-0.0592	0.0182	-0.0073	-0.0462	0.0165	0.9585
37.7624	2.6831	13.1929	-1.8015	-5.2625	2.9143	13.4209	21.7978	674.5478	-35.9128	225.8351	22.4612	600.9424	-0.0592	0.0182	-0.0073	-0.0462	0.0165	0.9585
37.7814	4.1689	29.5772	-1.9917	-11.7973	3.678	30.3082	24.9513	667.6113	-36.1007	223.7085	21.1612	590.5794	-0.0592	0.0182	-0.0073	-0.0462	0.0165	0.9585
37.8005	5.8485	52.764	-1.8414	-21.0014	4.142	54.2428	27.1514	663.0802	-36.6272	222.3661	20.5158	582.9309	-0.0592	0.0182	-0.0073	-0.0462	0.0165	0.9585
37.8196	7.4407	82.5435	-1.0899	-32.7687	3.9151	85.0449	28.1945	658.2745	-37.3369	220.8804	20.4595	575.669	-0.0592	0.0182	-0.0073	-0.0462	0.0165	0.9585
37.8386	8.3445	117.017	0.57334	-46.3162	2.4309	120.7937	27.9603	650.6111	-38.0409	218.3636	20.875	566.5456	-0.0592	0.0182	-0.0073	-0.0462	0.0165	0.9585
37.8577	8.0105	152.6888	3.3982	-60.2387	-0.77555	157.8937	26.4924	638.2053	-38.5835	214.174	21.6182	553.8885	-0.0592	0.0182	-0.0073	-0.0462	0.0165	0.9585
37.8768	6.4853	186.8445	7.1341	-73.4824	-5.4089	193.4821	24.0714	620.4039	-38.8846	208.0953	22.5299	537.042	-0.0592	0.0182	-0.0073	-0.0462	0.0165	0.9585
37.8959	4.0448	219.2095	11.2902	-85.9732	-10.835	227.1966	21.1706	597.7592	-38.9175	200.3277	23.4312	516.3519	-0.0592	0.0182	-0.0073	-0.0462	0.0165	0.9585
37.9149	1.0349	250.681	15.4233	-98.1065	-16.4425	259.8959	18.2944	571.4234	-38.6239	191.2829	24.1054	492.683	-0.0592	0.0182	-0.0073	-0.0462	0.0165	0.9585
37.934	-2.1824	282.0478	19.1755	-110.2262	-21.7025	292.3095	15.7934	542.4879	-37.9073	181.3565	24.3523	466.8874	-0.0592	0.0182	-0.0073	-0.0462	0.0165	0.9585
37.9531	-5.2508	313.4993	22.3542	-122.4167	-26.2611	324.5272	13.7992	511.6058	-36.712	170.7946	24.076	439.4881	-0.0592	0.0182	-0.0073	-0.0462	0.0165	0.9585
37.9721	-7.8321	344.7439	24.9841	-134.5488	-29.9997	356.1463	12.2732	479.0336	-35.0623	159.7063	23.3021	410.7055	-0.0592	0.0182	-0.0073	-0.0462	0.0165	0.9585
37.9912	-9.6617	375.4061	27.2231	-146.4474	-32.9698	386.6943	11.0875	444.9234	-33.0225	148.1575	22.1211	380.6856	-0.0592	0.0182	-0.0073	-0.0462	0.0165	0.9585
38.0103	-10.6447	405.2512	29.2503	-157.9946	-35.3198	415.8854	10.1153	409.5549	-30.6598	136.2494	20.6286	349.6905	-0.0592	0.0182	-0.0073	-0.0462	0.0165	0.9585
38.0294	-10.8363	434.2225	31.1702	-169.1545	-37.1912	443.6696	9.2917	373.4537	-28.041	124.1584	18.9031	318.1864	-0.0592	0.0182	-0.0073	-0.0462	0.0165	0.9585
38.0484	-10.3636	462.3812	32.9652	-179.9524	-38.6381	470.1756	8.6048	337.3899	-25.2559	112.1369	17.0185	286.8418	-0.0592	0.0182	-0.0073	-0.0462	0.0165	0.9585
38.0675	-9.4041	489.6819	34.542	-190.3809	-39.6587	495.4714	8.0535	302.2662	-22.4127	100.4774	15.0577	256.4303	-0.0592	0.0182	-0.0073	-0.0462	0.0165	0.9585
38.0866	-8.1698	515.8488	35.8066	-200.3423	-40.2583	519.4144	7.6152	268.9697	-19.6208	89.4632	13.1113	227.7044	-0.0592	0.0182	-0.0073	-0.0462	0.0165	0.9585
38.1056	-6.8622	540.4486	36.701	-209.6753	-40.4693	541.704	7.2444	238.2356	-16.9902	79.3238	11.2751	201.2808	-0.0592	0.0182	-0.0073	-0.0462	0.0165	0.9585
